HIERARCHY
ROOT Hips
{
	OFFSET 0.00000 0.00000 0.00000
	CHANNELS 6 Xposition Yposition Zposition Zrotation Yrotation Xrotation 
	JOINT LHipJoint
	{
		OFFSET 0 0 0
		CHANNELS 3 Zrotation Yrotation Xrotation
		JOINT LeftUpLeg
		{
			OFFSET 1.53139 -1.83434 0.76626
			CHANNELS 3 Zrotation Yrotation Xrotation
			JOINT LeftLeg
			{
				OFFSET 2.56112 -7.03663 0.00000
				CHANNELS 3 Zrotation Yrotation Xrotation
				JOINT LeftFoot
				{
					OFFSET 2.59983 -7.14299 0.00000
					CHANNELS 3 Zrotation Yrotation Xrotation
					JOINT LeftToeBase
					{
						OFFSET 0.13742 -0.37757 2.00054
						CHANNELS 3 Zrotation Yrotation Xrotation
						End Site
						{
							OFFSET 0.00000 -0.00000 1.02897
						}
					}
				}
			}
		}
	}
	JOINT RHipJoint
	{
		OFFSET 0 0 0
		CHANNELS 3 Zrotation Yrotation Xrotation
		JOINT RightUpLeg
		{
			OFFSET -1.40122 -1.83435 0.76627
			CHANNELS 3 Zrotation Yrotation Xrotation
			JOINT RightLeg
			{
				OFFSET -2.54052 -6.98003 0.00000
				CHANNELS 3 Zrotation Yrotation Xrotation
				JOINT RightFoot
				{
					OFFSET -2.63179 -7.23079 0.00000
					CHANNELS 3 Zrotation Yrotation Xrotation
					JOINT RightToeBase
					{
						OFFSET -0.24131 -0.66299 2.03908
						CHANNELS 3 Zrotation Yrotation Xrotation
						End Site
						{
							OFFSET -0.00000 -0.00000 1.07391
						}
					}
				}
			}
		}
	}
	JOINT LowerBack
	{
		OFFSET 0 0 0
		CHANNELS 3 Zrotation Yrotation Xrotation
		JOINT Spine
		{
			OFFSET 0.01174 2.10302 -0.29778
			CHANNELS 3 Zrotation Yrotation Xrotation
			JOINT Spine1
			{
				OFFSET 0.00772 2.13227 -0.01247
				CHANNELS 3 Zrotation Yrotation Xrotation
				JOINT Neck
				{
					OFFSET 0 0 0
					CHANNELS 3 Zrotation Yrotation Xrotation
					JOINT Neck1
					{
						OFFSET -0.09219 1.60848 0.31481
						CHANNELS 3 Zrotation Yrotation Xrotation
						JOINT Head
						{
							OFFSET 0.13974 1.65456 -0.31134
							CHANNELS 3 Zrotation Yrotation Xrotation
							End Site
							{
								OFFSET 0.04742 1.69515 -0.14578
							}
						}
					}
				}
				JOINT LeftShoulder
				{
					OFFSET 0 0 0
					CHANNELS 3 Zrotation Yrotation Xrotation
					JOINT LeftArm
					{
						OFFSET 3.24909 1.02882 -0.23993
						CHANNELS 3 Zrotation Yrotation Xrotation
						JOINT LeftForeArm
						{
							OFFSET 5.32955 -0.00000 -0.00000
							CHANNELS 3 Zrotation Yrotation Xrotation
							JOINT LeftHand
							{
								OFFSET 3.69232 -0.00000 -0.00000
								CHANNELS 3 Zrotation Yrotation Xrotation
								JOINT LeftFingerBase
								{
									OFFSET 0 0 0
									CHANNELS 3 Zrotation Yrotation Xrotation
									JOINT LeftHandIndex1
									{
										OFFSET 0.53660 -0.00000 -0.00000
										CHANNELS 3 Zrotation Yrotation Xrotation
										End Site
										{
											OFFSET 0.43262 -0.00000 -0.00000
										}
									}
								}
								JOINT LThumb
								{
									OFFSET 0 0 0
									CHANNELS 3 Zrotation Yrotation Xrotation
									End Site
									{
										OFFSET 0.43922 -0.00000 0.43922
									}
								}
							}
						}
					}
				}
				JOINT RightShoulder
				{
					OFFSET 0 0 0
					CHANNELS 3 Zrotation Yrotation Xrotation
					JOINT RightArm
					{
						OFFSET -3.21387 0.93002 -0.34594
						CHANNELS 3 Zrotation Yrotation Xrotation
						JOINT RightForeArm
						{
							OFFSET -5.23431 -0.00000 0.00000
							CHANNELS 3 Zrotation Yrotation Xrotation
							JOINT RightHand
							{
								OFFSET -3.55301 -0.00000 -0.00000
								CHANNELS 3 Zrotation Yrotation Xrotation
								JOINT RightFingerBase
								{
									OFFSET 0 0 0
									CHANNELS 3 Zrotation Yrotation Xrotation
									JOINT RightHandIndex1
									{
										OFFSET -0.77252 -0.00000 -0.00000
										CHANNELS 3 Zrotation Yrotation Xrotation
										End Site
										{
											OFFSET -0.62283 -0.00000 -0.00000
										}
									}
								}
								JOINT RThumb
								{
									OFFSET 0 0 0
									CHANNELS 3 Zrotation Yrotation Xrotation
									End Site
									{
										OFFSET -0.63234 -0.00000 0.63234
									}
								}
							}
						}
					}
				}
			}
		}
	}
}
MOTION
Frames: 12
Frame Time: .0083333
-11.2382 17.7869 14.9623 4.5440 -9.3548 720.4410 0.0000 0.0000 0.0000 -25.2173 -7.2407 -8.3975 1.3157 7.2653 20.5036 -0.6169 -17.0103 -4.4602 0.0520 -1.4722 -4.0491 0.0000 0.0000 0.0000 15.7531 4.3463 -17.1868 -6.4215 -14.8247 46.6508 -0.8627 2.4903 -16.8867 -0.3211 3.6424 -10.0729 -1.7642 0.9623 9.7945 0.4121 1.1052 1.3438 1.2756 0.5750 -4.1346 -11.8003 -1.1472 -11.3871 3.7191 0.1588 43.7045 3.9407 -1.4411 18.4195 0.0000 -0.0000 0.0000 -88.4308 7.9929 17.5400 21.1661 -32.0217 -6.1378 -0.0000 -0.0000 1.1864 21.0990 25.1828 9.3237 -7.1250 0.0000 -0.0000 -9.3559 56.4821 -2.6500 0.0000 -0.0000 0.0000 88.0419 -7.2726 14.9095 -22.0436 33.0262 -6.6096 0.0000 0.0000 0.3883 -15.5821 8.2926 -2.3032 7.1250 -0.0000 -0.0000 8.1553 -21.4097 4.6620
-11.2578 17.7836 14.9679 4.4230 -8.7461 720.3930 0.0000 0.0000 0.0000 -25.0547 -7.5406 -8.3544 1.3529 7.3632 20.7958 -0.6358 -17.2198 -4.4640 0.0380 -1.2587 -3.4609 0.0000 0.0000 0.0000 15.7917 4.8348 -16.7223 -6.2509 -14.6671 45.9805 -0.8791 3.2743 -16.9163 -0.3459 3.7792 -10.4563 -1.7583 0.8941 9.7773 0.4334 1.0169 1.3561 1.3065 0.5311 -4.1093 -11.7583 -1.1548 -11.4125 3.6811 0.1658 43.6750 3.9157 -1.4321 18.4074 0.0000 -0.0000 0.0000 -88.3426 8.0276 17.4734 21.0467 -31.8828 -6.0746 -0.0000 -0.0000 1.2298 21.3327 24.7638 9.2907 -7.1250 0.0000 -0.0000 -8.9225 56.1032 -2.4438 0.0000 -0.0000 0.0000 88.2078 -7.3156 15.1856 -22.3404 33.3596 -6.7721 0.0000 0.0000 0.2139 -15.3373 7.9909 -2.1835 7.1250 -0.0000 -0.0000 8.3413 -21.7300 4.7093
-11.2778 17.7902 14.9747 4.2057 -8.1269 720.3510 0.0000 0.0000 0.0000 -24.7875 -7.7185 -8.2527 1.3653 7.3955 20.8924 -0.6673 -17.5112 -4.3938 0.0344 -1.1964 -3.2894 0.0000 0.0000 0.0000 15.9031 5.5645 -16.2976 -6.0706 -14.4964 45.2645 -0.8615 3.9489 -16.6541 -0.1712 2.6651 -7.3478 -1.6294 0.8033 9.7862 0.4639 0.9114 1.3512 1.2795 0.4774 -4.1140 -11.7343 -1.1743 -11.4294 3.6256 0.1656 43.6939 3.8864 -1.4344 18.4254 -0.0000 -0.0000 0.0000 -88.2605 8.1708 17.2780 21.0442 -31.8800 -6.0733 -0.0000 -0.0000 1.3830 20.7902 25.4686 9.2725 -7.1250 0.0000 -0.0000 -9.8146 56.7077 -2.8354 -0.0000 -0.0000 0.0000 88.4056 -7.3666 15.4807 -22.6167 33.6670 -6.9246 0.0000 0.0000 0.0415 -15.1269 7.8088 -2.1034 7.1250 -0.0000 -0.0000 8.4996 -21.9255 4.7625
-11.2992 17.7940 14.9792 4.0351 -7.5735 720.3350 0.0000 0.0000 0.0000 -24.5664 -7.8714 -8.1290 1.3601 7.3819 20.8517 -0.6988 -17.7584 -4.2674 0.0352 -1.2117 -3.3314 0.0000 0.0000 0.0000 16.0151 6.2737 -15.8534 -5.8879 -14.3188 44.5302 -0.8547 4.6235 -16.5261 -0.0870 1.9025 -5.2363 -1.5774 0.7410 9.6952 0.4875 0.8371 1.4022 1.2857 0.4389 -4.0073 -11.7965 -1.2068 -11.4881 3.7277 0.1098 43.6888 3.9390 -1.4514 18.4448 0.0000 -0.0000 0.0000 -88.1833 8.1058 17.0512 20.9671 -31.7900 -6.0326 -0.0000 -0.0000 1.4789 19.9625 26.7347 9.2803 -7.1250 0.0000 -0.0000 -11.3255 57.8070 -3.5807 0.0000 -0.0000 0.0000 88.6060 -7.2151 15.7097 -22.8057 33.8757 -7.0297 0.0000 -0.0000 -0.0147 -15.1319 7.7573 -2.0904 7.1250 -0.0000 -0.0000 8.4978 -21.9780 4.7511
-11.3225 17.7982 14.9842 3.9605 -7.0881 720.3610 0.0000 0.0000 0.0000 -24.4367 -8.0062 -8.0729 1.3559 7.3709 20.8190 -0.7312 -17.9958 -4.1170 0.0387 -1.2701 -3.4924 0.0000 0.0000 0.0000 16.0415 6.9546 -15.4791 -5.7077 -14.1390 43.7972 -0.8494 5.4003 -16.4367 -0.0488 1.4253 -3.9198 -1.6429 0.7016 9.5069 0.4886 0.7816 1.4715 1.3330 0.4105 -3.8294 -11.8787 -1.2548 -11.6211 3.8384 0.0433 43.6415 3.9966 -1.4728 18.4601 -0.0000 0.0000 0.0000 -88.0757 7.8626 16.8752 20.7375 -31.5206 -5.9121 -0.0000 -0.0000 1.5332 19.6424 26.8309 9.1516 -7.1250 0.0000 -0.0000 -11.7184 57.8330 -3.7145 -0.0000 0.0000 0.0000 88.7472 -7.0486 16.1506 -23.0088 34.0985 -7.1432 0.0000 -0.0000 -0.3370 -15.3156 7.6949 -2.1001 7.1250 -0.0000 -0.0000 8.3668 -22.0342 4.6656
-11.3474 17.8016 14.9908 3.9577 -6.6268 720.3410 0.0000 0.0000 0.0000 -24.3886 -8.0733 -8.0215 1.3602 7.3820 20.8523 -0.7572 -18.2777 -4.1476 0.0561 -1.5289 -4.2054 0.0000 0.0000 0.0000 15.9954 7.6086 -15.0867 -5.5300 -13.9569 43.0651 -0.8332 6.0798 -16.2735 -0.0081 0.5809 -1.5962 -1.7749 0.6928 9.3933 0.4596 0.7576 1.5051 1.3815 0.3993 -3.7317 -11.8882 -1.3109 -11.7606 3.8767 -0.0242 43.6958 4.0109 -1.4977 18.5419 -0.0000 0.0000 0.0000 -87.9519 7.7880 16.7809 20.6296 -31.3934 -5.8558 -0.0000 -0.0000 1.5546 19.8285 26.6480 9.1866 -7.1250 0.0000 -0.0000 -11.4229 57.6906 -3.5799 -0.0000 0.0000 0.0000 88.8878 -7.0964 16.5869 -23.3201 34.4370 -7.3185 0.0000 -0.0000 -0.6880 -15.3815 7.6079 -2.0859 7.1250 -0.0000 -0.0000 8.3219 -22.1206 4.6234
-11.3701 17.7973 14.9947 3.9309 -6.0674 720.3020 0.0000 0.0000 0.0000 -24.3166 -8.1771 -8.0095 1.3744 7.4190 20.9626 -0.7983 -18.6394 -4.0760 0.0587 -1.5628 -4.2989 0.0000 0.0000 0.0000 16.0235 7.9711 -14.6784 -5.3526 -13.7702 42.3247 -0.8413 6.2404 -16.3558 -0.0047 0.4426 -1.2163 -1.8640 0.6545 9.3902 0.4382 0.6972 1.4682 1.4168 0.3711 -3.7668 -11.9321 -1.3420 -11.7061 3.9848 -0.1033 43.7377 4.0599 -1.5224 18.5629 0.0000 -0.0000 0.0000 -87.8870 7.8743 16.5934 20.5975 -31.3555 -5.8391 -0.0000 -0.0000 1.5887 20.1128 26.9164 9.4126 -7.1250 0.0000 -0.0000 -11.2608 58.0223 -3.6185 0.0000 -0.0000 0.0000 89.0404 -7.2395 16.9549 -23.5709 34.7072 -7.4608 0.0000 -0.0000 -0.7088 -15.3991 7.5177 -2.0638 7.1250 -0.0000 -0.0000 8.3122 -22.2122 4.6004
-11.3922 17.7925 14.9953 3.8822 -5.5279 720.2680 0.0000 0.0000 0.0000 -24.2148 -8.3840 -8.0276 1.4040 7.4952 21.1911 -0.8308 -18.9334 -4.0451 0.0569 -1.5397 -4.2351 0.0000 0.0000 0.0000 16.1049 8.3166 -14.2312 -5.1742 -13.5773 41.5699 -0.8632 6.1676 -16.5666 -0.0103 0.6552 -1.8006 -1.9188 0.6193 9.4608 0.4213 0.6424 1.3702 1.4361 0.3468 -3.9063 -11.9952 -1.3461 -11.5018 4.1214 -0.1715 43.6941 4.1213 -1.5371 18.4865 0.0000 0.0000 0.0000 -87.8324 8.0651 16.3501 20.5810 -31.3360 -5.8305 -0.0000 -0.0000 1.7417 19.9656 27.4839 9.5176 -7.1250 0.0000 -0.0000 -11.7286 58.5576 -3.9228 0.0000 0.0000 0.0000 89.2190 -7.4194 17.2689 -23.7478 34.8964 -7.5618 0.0000 -0.0000 -0.6783 -15.5303 7.5333 -2.0865 7.1250 -0.0000 -0.0000 8.2163 -22.1909 4.5502
-11.4172 17.7887 14.9979 3.7395 -5.0925 720.2380 0.0000 0.0000 0.0000 -23.9973 -8.6617 -8.0417 1.4455 7.6003 21.5065 -0.8387 -19.0346 -4.0873 0.0527 -1.4808 -4.0729 0.0000 0.0000 0.0000 16.3090 8.7281 -13.7434 -5.0042 -13.3886 40.8410 -0.8766 6.1025 -16.6953 -0.0049 0.4541 -1.2476 -1.9000 0.5997 9.4411 0.4362 0.6195 1.3508 1.4439 0.3356 -3.9146 -11.9550 -1.3641 -11.4598 4.0301 -0.1700 43.5953 4.0650 -1.5339 18.4138 -0.0000 -0.0000 0.0000 -87.7719 8.2042 16.1885 20.6301 -31.3940 -5.8560 -0.0000 -0.0000 1.6797 19.7505 27.6316 9.4541 -7.1250 0.0000 -0.0000 -12.0436 58.6564 -4.0588 -0.0000 -0.0000 0.0000 89.3656 -7.4000 17.5808 -23.8617 35.0177 -7.6270 0.0000 -0.0000 -0.6583 -15.5698 7.5441 -2.0951 7.1250 -0.0000 -0.0000 8.1872 -22.1782 4.5362
-11.4424 17.7822 14.9988 3.6426 -4.6529 720.2550 0.0000 0.0000 0.0000 -23.8127 -8.9955 -8.0995 1.4845 7.6979 21.8002 -0.8563 -19.1553 -4.0112 0.0394 -1.2813 -3.5230 0.0000 0.0000 0.0000 16.4652 8.9983 -13.3716 -4.8498 -13.2126 40.1697 -0.8661 5.8691 -16.5938 -0.0011 0.2109 -0.5795 -1.9226 0.5885 9.3473 0.4406 0.6046 1.3528 1.4637 0.3281 -3.8599 -11.9652 -1.3855 -11.4493 4.0140 -0.1848 43.5070 4.0527 -1.5362 18.3586 -0.0000 -0.0000 0.0000 -87.6975 8.2223 16.0972 20.5874 -31.3436 -5.8338 -0.0000 -0.0000 1.4168 20.0180 27.2774 9.4792 -7.1250 0.0000 -0.0000 -11.5578 58.3629 -3.8105 -0.0000 -0.0000 0.0000 89.4778 -7.2828 17.8615 -23.9527 35.1142 -7.6794 0.0000 -0.0000 -0.6174 -15.4003 7.6609 -2.1030 7.1250 -0.0000 -0.0000 8.3065 -22.0655 4.6252
-11.4673 17.7746 14.9963 3.6399 -4.1733 720.2360 0.0000 0.0000 0.0000 -23.7404 -9.3874 -8.1126 1.5205 7.7864 22.0670 -0.8755 -19.3051 -3.9619 0.0323 -1.1608 -3.1913 0.0000 0.0000 0.0000 16.5305 9.0995 -13.0599 -4.7162 -13.0569 39.5818 -0.8517 5.5591 -16.4567 -0.0001 -0.0561 0.1541 -2.0209 0.5833 9.3300 0.4130 0.5872 1.3586 1.4928 0.3206 -3.8443 -12.0068 -1.4008 -11.4699 4.1586 -0.2423 43.5470 4.1239 -1.5467 18.3952 -0.0000 0.0000 0.0000 -87.5902 8.2184 16.1110 20.5789 -31.3334 -5.8294 -0.0000 -0.0000 1.1203 20.1080 27.2015 9.5007 -7.1250 0.0000 -0.0000 -11.4195 58.3072 -3.7488 -0.0000 0.0000 0.0000 89.5763 -7.2222 18.1597 -24.0471 35.2140 -7.7337 0.0000 -0.0000 -0.5323 -15.4254 7.6551 -2.1050 7.1250 -0.0000 -0.0000 8.2884 -22.0703 4.6140
-11.4946 17.7730 14.9944 3.5911 -3.7588 720.1670 0.0000 0.0000 0.0000 -23.5987 -9.6253 -8.1171 1.5551 7.8705 22.3214 -0.9055 -19.5584 -3.9227 0.0298 -1.1142 -3.0632 0.0000 0.0000 0.0000 16.6876 9.1703 -12.7244 -4.6047 -12.9243 39.0859 -0.8590 5.3612 -16.5327 -0.0018 -0.2738 0.7524 -2.0907 0.5930 9.3565 0.3986 0.5922 1.3877 1.5164 0.3236 -3.8295 -12.0132 -1.4161 -11.5426 4.2424 -0.2765 43.5912 4.1643 -1.5503 18.4463 0.0000 -0.0000 0.0000 -87.5011 8.1589 16.0647 20.5658 -31.3180 -5.8226 -0.0000 -0.0000 1.0496 19.8110 27.6231 9.4824 -7.1250 0.0000 -0.0000 -11.9735 58.6616 -4.0362 0.0000 -0.0000 0.0000 89.6728 -7.2478 18.6791 -24.1976 35.3725 -7.8206 0.0000 -0.0000 -0.6574 -15.7425 7.2904 -2.0487 7.1250 -0.0000 -0.0000 8.0701 -22.4315 4.4229
